<svg xmlns="http://www.w3.org/2000/svg" xmlns:xlink="http://www.w3.org/1999/xlink" width="1200" zoomAndPan="magnify" viewBox="0 0 900 899.99999" height="1200" preserveAspectRatio="xMidYMid meet" version="1.0"><defs><g/></defs><rect x="-90" width="1080" fill="#ffffff" y="-89.999999" height="1079.999988" fill-opacity="1"/><rect x="-90" width="1080" fill="#000000" y="-89.999999" height="1079.999988" fill-opacity="1"/><g fill="#fffcfc" fill-opacity="1"><g transform="translate(41.55486, 813.027802)"><g><path d="M 405.78125 -767.0625 C 460.164062 -767.0625 511.195312 -756.816406 558.875 -736.328125 C 606.550781 -715.847656 648.578125 -687.421875 684.953125 -651.046875 C 721.328125 -614.671875 749.753906 -572.644531 770.234375 -524.96875 C 790.722656 -477.289062 800.96875 -426.257812 800.96875 -371.875 C 800.96875 -317.488281 790.722656 -266.457031 770.234375 -218.78125 C 749.753906 -171.101562 721.328125 -129.078125 684.953125 -92.703125 C 648.578125 -56.328125 606.550781 -27.894531 558.875 -7.40625 C 511.195312 13.070312 460.164062 23.3125 405.78125 23.3125 C 351.394531 23.3125 300.363281 13.070312 252.6875 -7.40625 C 205.007812 -27.894531 162.984375 -56.328125 126.609375 -92.703125 C 90.234375 -129.078125 61.800781 -171.101562 41.3125 -218.78125 C 20.832031 -266.457031 10.59375 -317.488281 10.59375 -371.875 C 10.59375 -426.257812 20.832031 -477.289062 41.3125 -524.96875 C 61.800781 -572.644531 90.234375 -614.671875 126.609375 -651.046875 C 162.984375 -687.421875 205.007812 -715.847656 252.6875 -736.328125 C 300.363281 -756.816406 351.394531 -767.0625 405.78125 -767.0625 Z M 405.78125 -767.0625 "/></g></g></g><path stroke-linecap="butt" transform="matrix(1.8, 0, 0, 1.8, 263.048545, 352.893282)" fill="none" stroke-linejoin="miter" d="M -0.000927574 3.498958 L 377.158355 3.498958 " stroke="#000000" stroke-width="7" stroke-opacity="1" stroke-miterlimit="4"/><path stroke-linecap="butt" transform="matrix(1.8, 0, 0, 1.8, 263.048545, 416.540974)" fill="none" stroke-linejoin="miter" d="M -0.000927574 3.499372 L 377.158355 3.499372 " stroke="#000000" stroke-width="7" stroke-opacity="1" stroke-miterlimit="4"/><path stroke-linecap="butt" transform="matrix(1.8, 0, 0, 1.8, 263.048545, 480.188539)" fill="none" stroke-linejoin="miter" d="M -0.000927574 3.499857 L 377.158355 3.499857 " stroke="#000000" stroke-width="7" stroke-opacity="1" stroke-miterlimit="4"/><path stroke-linecap="butt" transform="matrix(1.8, 0, 0, 1.8, 263.048545, 543.836248)" fill="none" stroke-linejoin="miter" d="M -0.000927574 3.500262 L 377.158355 3.500262 " stroke="#000000" stroke-width="7" stroke-opacity="1" stroke-miterlimit="4"/></svg>